<?xml version="1.0" standalone="no"?>
<!--
  - Copyright © 2022-2023, DCCTech, Hungary and contributors. Use of this source code is governed by the Apache 2.0 license.
  -->
<svg xmlns="http://www.w3.org/2000/svg" viewBox="0 0 1440 320">
    <path fill="white" fill-opacity="1"
          d="M0,192L48,181.3C96,171,192,149,288,138.7C384,128,480,128,576,160C672,192,768,256,864,261.3C960,267,1056,213,1152,192C1248,171,1344,181,1392,186.7L1440,192L1440,0L1392,0C1344,0,1248,0,1152,0C1056,0,960,0,864,0C768,0,672,0,576,0C480,0,384,0,288,0C192,0,96,0,48,0L0,0Z"></path>
</svg>